<svg xmlns="http://www.w3.org/2000/svg" width="680" height="520" viewBox="0 0 680 520"><defs><radialGradient id="g" cx="45%" cy="48%" r="62%"><stop offset="0" stop-color="#fffaf4"/><stop offset=".58" stop-color="#ffe8d8"/><stop offset="1" stop-color="#f5c7a7" stop-opacity=".35"/></radialGradient><linearGradient id="f" x1="0" x2="1" y1="0" y2="1"><stop stop-color="#efb88f"/><stop offset=".48" stop-color="#ffe2ca"/><stop offset="1" stop-color="#fff8ee"/></linearGradient><linearGradient id="f2" x1="0" x2="1" y1="0" y2="1"><stop stop-color="#d88c54"/><stop offset=".55" stop-color="#f7c4a2"/><stop offset="1" stop-color="#fff2e3"/></linearGradient><filter id="s"><feDropShadow dx="0" dy="20" stdDeviation="15" flood-color="#7d4b2d" flood-opacity=".22"/></filter></defs><ellipse cx="330" cy="285" rx="300" ry="205" fill="url(#g)"/><g filter="url(#s)"><ellipse cx="292" cy="395" rx="185" ry="68" fill="#fff2e5"/><ellipse cx="206" cy="402" rx="62" ry="34" fill="#fff8f0"/><ellipse cx="374" cy="402" rx="62" ry="34" fill="#fff8f0"/><path d="M210 154C155 96 101 65 79 96C54 132 95 238 160 274Z" fill="url(#f2)"/><path d="M372 154C427 96 481 65 503 96C528 132 487 238 422 274Z" fill="url(#f2)"/><path d="M138 118C104 135 117 207 163 244C173 200 179 162 138 118Z" fill="#f5b8a6" opacity=".8"/><path d="M444 118C478 135 465 207 419 244C409 200 403 162 444 118Z" fill="#f5b8a6" opacity=".8"/><path d="M148 168C165 103 225 74 291 74C357 74 417 103 434 168C452 236 423 337 291 337C159 337 130 236 148 168Z" fill="url(#f)"/><path d="M222 91C231 142 250 164 291 167C332 164 351 142 360 91C338 78 316 74 291 74C266 74 244 78 222 91Z" fill="#fff5eb" opacity=".8"/><ellipse cx="225" cy="205" rx="33" ry="40" fill="#15242b"/><ellipse cx="357" cy="205" rx="33" ry="40" fill="#15242b"/><circle cx="214" cy="191" r="9" fill="#fff"/><circle cx="346" cy="191" r="9" fill="#fff"/><ellipse cx="291" cy="258" rx="78" ry="58" fill="#fff8ef"/><path d="M263 247C277 229 305 229 319 247C314 269 268 269 263 247Z" fill="#2c2522"/><path d="M291 263C291 286 274 296 254 296M291 263C291 286 308 296 328 296" fill="none" stroke="#7b5137" stroke-width="4" stroke-linecap="round" opacity=".45"/></g><g transform="translate(492 162)" filter="url(#s)"><rect x="38" y="0" width="58" height="112" rx="28" fill="#f8f8f8" stroke="#ddd4cc"/><rect x="30" y="95" width="74" height="44" rx="8" fill="#f6f6f6" stroke="#ddd4cc"/><rect x="18" y="126" width="98" height="238" rx="20" fill="#fff" stroke="#e2d8cf"/><rect x="31" y="188" width="72" height="130" rx="10" fill="#fffaf3" stroke="#efd7c3"/><text x="67" y="217" text-anchor="middle" font-family="Georgia,serif" font-size="22" font-weight="700" fill="#1f5960">Pup-<tspan fill="#d88543" font-style="italic">Lift</tspan></text><text x="67" y="238" text-anchor="middle" font-family="Arial" font-size="7" font-weight="700" fill="#7b5137">EMERGENCY SUPPORT</text><text x="67" y="251" text-anchor="middle" font-family="Arial" font-size="7" font-weight="700" fill="#7b5137">ORAL GLUCOSE AID</text><rect x="49" y="263" width="36" height="36" fill="#fff" stroke="#111" stroke-width="3"/><path d="M54 268h9v9h-9zM71 268h9v9h-9zM54 285h9v9h-9zM68 282h5v5h-5zM78 289h4v4h-4z" fill="#111"/><text x="67" y="312" text-anchor="middle" font-family="Arial" font-size="6" font-weight="700" fill="#7b5137">SCAN FOR STEPS</text></g></svg>